<svg width="36" height="36" viewBox="0 0 36 36" fill="none" xmlns="http://www.w3.org/2000/svg">
<path d="M17.8672 17.9993C17.8672 15.0539 20.2549 12.666 23.2005 12.666C26.1459 12.666 28.5337 15.0539 28.5337 17.9993C28.5337 20.9449 26.1459 23.3327 23.2005 23.3327C20.2549 23.3327 17.8672 20.9449 17.8672 17.9993Z" fill="#1ABCFE"/>
<path d="M7.19922 28.6654C7.19922 25.7199 9.587 23.332 12.5325 23.332L17.8658 23.332L17.8658 28.6654C17.8658 31.6109 15.478 33.9987 12.5325 33.9987C9.587 33.9987 7.19922 31.6109 7.19922 28.6654Z" fill="#0ACF83"/>
<path d="M17.8672 2L17.8672 12.6666L23.2005 12.6666C26.146 12.6666 28.5337 10.2788 28.5337 7.33332C28.5337 4.38781 26.146 2 23.2005 2L17.8672 2Z" fill="#FF7262"/>
<path d="M7.19922 7.33332C7.19922 10.2788 9.587 12.6666 12.5325 12.6666L17.8658 12.6666L17.8658 2L12.5325 2C9.587 2 7.19922 4.38781 7.19922 7.33332Z" fill="#F24E1E"/>
<path d="M7.19922 17.9993C7.19922 20.9449 9.587 23.3327 12.5325 23.3327L17.8658 23.3327L17.8658 12.666L12.5325 12.666C9.587 12.666 7.19922 15.0539 7.19922 17.9993Z" fill="#A259FF"/>
</svg>
